{"title":"Young Jeezy ft Yo Gotti - All White Everything [KingPinVideos]","uid":5740242,"size":95388946,"categoryP":"other","categoryS":"other","magnet":"?xt=urn:btih:0d4c801938052637b77a9100537a6bd87c3aa0be&amp;dn=Young+Jeezy+ft+Yo+Gotti+-+All+White+Everything+%5BKingPinVideos%5D&amp;tr=udp%3A%2F%2Ftracker.openbittorrent.com%3A80&amp;tr=udp%3A%2F%2Fopen.demonii.com%3A1337&amp;tr=udp%3A%2F%2Ftracker.coppersurfer.tk%3A6969&amp;tr=udp%3A%2F%2Fexodus.desync.com%3A6969","seeders":1,"leechers":0,"uploader":"KingPinMan","files":4,"time":1280982038,"description":"[img]http://a.imageshack.us/img801/9421/jeezywhite.png[/img]\n\n[img]http://a.imageshack.us/img594/6739/jeezywhite2.png[/img]\n\n\nThis is a new single from Atlantas Trap Star Young Jeezy. The video is from his upcoming album TM103 aka Thug Motivation 103 due in stores later this year. The video featured Yo Gotti and a lot of white things. Check out the video and dont forget to leave your comments, register in our forum and get all the latest releases, and dont forget to sign up to our RSS feed to be the first one to know of the latest releases. Enjoy the release!\n\n[code]General\nComplete name                    : Young Jeezy ft Yo Gotti - All White Everything [KingPinVideos].mpg\nFormat                           : MPEG-PS\nFile size                        : 90.8 MiB\nDuration                         : 4mn 20s\nOverall bit rate                 : 2 920 Kbps\nWriting library                  : encoded by TMPGEnc 4.0 XPress Version. 4.7.4.299\n\nVideo\nID                               : 224 (0xE0)\nFormat                           : MPEG Video\nFormat version                   : Version 1\nFormat settings, BVOP            : Yes\nFormat settings, Matrix          : Default\nDuration                         : 4mn 20s\nBit rate mode                    : Constant\nBit rate                         : 2 612 Kbps\nNominal bit rate                 : 2 700 Kbps\nWidth                            : 384 pixels\nHeight                           : 208 pixels\nDisplay aspect ratio             : 16:9\nFrame rate                       : 29.970 fps\nResolution                       : 8 bits\nScan type                        : Progressive\nBits/(Pixel*Frame)               : 1.091\nStream size                      : 81.2 MiB (89%)\nWriting library                  : TMPGEnc XPress 4.7.4.299\n\nAudio\nID                               : 192 (0xC0)\nFormat                           : MPEG Audio\nFormat version                   : Version 1\nFormat profile                   : Layer 2\nDuration                         : 4mn 20s\nBit rate mode                    : Constant\nBit rate                         : 192 Kbps\nChannel(s)                       : 2 channels\nSampling rate                    : 48.0 KHz\nStream size                      : 5.97 MiB (7%)\n[/code]\n\nGet the latest releases at KingPinVideos.com","torrent":{"xt":"urn:btih:0d4c801938052637b77a9100537a6bd87c3aa0be","amp;dn":"Young+Jeezy+ft+Yo+Gotti+-+All+White+Everything+%5BKingPinVideos%5D","amp;tr":["udp%3A%2F%2Ftracker.openbittorrent.com%3A80","udp%3A%2F%2Fopen.demonii.com%3A1337","udp%3A%2F%2Ftracker.coppersurfer.tk%3A6969","udp%3A%2F%2Fexodus.desync.com%3A6969"],"infoHash":"0d4c801938052637b77a9100537a6bd87c3aa0be","infoHashBuffer":{"type":"Buffer","data":[13,76,128,25,56,5,38,55,183,122,145,0,83,122,107,216,124,58,160,190]},"announce":[],"urlList":[]}}